HIERARCHY
ROOT Hips
{
	OFFSET 0.000000 0.000000 0.000000
	CHANNELS 6 Xposition Yposition Zposition Xrotation Yrotation Zrotation
	JOINT LeftUpLeg_virtual
	{
		OFFSET 0.000000 0.000000 0.000000
		CHANNELS 3 Xrotation Yrotation Zrotation
		JOINT LeftUpLeg
		{
			OFFSET 10.205400 -3.823500 0.155100
			CHANNELS 3 Xrotation Yrotation Zrotation
			JOINT LeftLeg
			{
				OFFSET 0.708757 -12.982077 0.567790
				CHANNELS 3 Xrotation Yrotation Zrotation
				JOINT LeftFoot
				{
					OFFSET -0.708756 -10.717838 -2.184338
					CHANNELS 3 Xrotation Yrotation Zrotation
					JOINT LeftToeBase
					{
						OFFSET 0.108149 -7.191104 7.560241
						CHANNELS 3 Xrotation Yrotation Zrotation
						JOINT LeftToe_End
						{
							OFFSET 0.070230 0.081724 4.490308
							CHANNELS 3 Xrotation Yrotation Zrotation
							End Site
							{
								OFFSET 0 0 0
							}
						}
					}
				}
			}
		}
	}
	JOINT RightUpLeg_virtual
	{
		OFFSET 0.000000 0.000000 0.000000
		CHANNELS 3 Xrotation Yrotation Zrotation
		JOINT RightUpLeg
		{
			OFFSET -10.205400 -3.823500 0.005500
			CHANNELS 3 Xrotation Yrotation Zrotation
			JOINT RightLeg
			{
				OFFSET -0.708756 -12.982134 0.610632
				CHANNELS 3 Xrotation Yrotation Zrotation
				JOINT RightFoot
				{
					OFFSET 0.708754 -10.717769 -1.945823
					CHANNELS 3 Xrotation Yrotation Zrotation
					JOINT RightToeBase
					{
						OFFSET -0.108140 -7.191069 7.372968
						CHANNELS 3 Xrotation Yrotation Zrotation
						JOINT RightToe_End
						{
							OFFSET -0.070227 0.081735 4.479403
							CHANNELS 3 Xrotation Yrotation Zrotation
							End Site
							{
								OFFSET 0 0 0
							}
						}
					}
				}
			}
		}
	}
	JOINT Spine_virtual
	{
		OFFSET 0.000000 0.000000 0.000000
		CHANNELS 3 Xrotation Yrotation Zrotation
		JOINT Spine
		{
			OFFSET 0.000000 6.876099 0.125700
			CHANNELS 3 Xrotation Yrotation Zrotation
			JOINT Spine1
			{
				OFFSET 0.000000 5.730043 0.104720
				CHANNELS 3 Xrotation Yrotation Zrotation
				JOINT Spine1_split
				{
					OFFSET 0.000000 5.730043 0.104720
					CHANNELS 3 Xrotation Yrotation Zrotation
					JOINT Spine2
					{
						OFFSET 0.000000 5.730043 0.104720
						CHANNELS 3 Xrotation Yrotation Zrotation
						JOINT Neck_virtual
						{
							OFFSET 0.000000 0.000000 0.000000
							CHANNELS 3 Xrotation Yrotation Zrotation
							JOINT Neck
							{
								OFFSET 0.000000 10.314075 0.188496
								CHANNELS 3 Xrotation Yrotation Zrotation
								JOINT Head
								{
									OFFSET 0.000000 7.643700 -2.377400
									CHANNELS 3 Xrotation Yrotation Zrotation
									JOINT HeadTop_End
									{
										OFFSET 0.000000 43.788605 -13.619600
										CHANNELS 3 Xrotation Yrotation Zrotation
										End Site
										{
											OFFSET 0 0 0
										}
									}
								}
							}
						}
						JOINT LeftShoulder_virtual
						{
							OFFSET 0.000000 0.000000 0.000000
							CHANNELS 3 Xrotation Yrotation Zrotation
							JOINT LeftShoulder
							{
								OFFSET 2.196100 4.412489 0.087492
								CHANNELS 3 Xrotation Yrotation Zrotation
								JOINT LeftShoulder_split
								{
									OFFSET 2.196100 4.412489 0.087492
									CHANNELS 3 Xrotation Yrotation Zrotation
									JOINT LeftArm
									{
										OFFSET 8.771219 -2.981674 -0.026999
										CHANNELS 3 Xrotation Yrotation Zrotation
										JOINT LeftForeArm
										{
											OFFSET 8.512804 0.000000 -0.000000
											CHANNELS 3 Xrotation Yrotation Zrotation
											JOINT LeftHand
											{
												OFFSET 18.484802 0.000000 -0.000000
												CHANNELS 3 Xrotation Yrotation Zrotation
												End Site
												{
													OFFSET 0 0 0
												}
											}
										}
									}
								}
							}
						}
						JOINT RightShoulder_virtual
						{
							OFFSET 0.000000 0.000000 0.000000
							CHANNELS 3 Xrotation Yrotation Zrotation
							JOINT RightShoulder
							{
								OFFSET -2.196100 4.412496 0.070690
								CHANNELS 3 Xrotation Yrotation Zrotation
								JOINT RightShoulder_split
								{
									OFFSET -2.196100 4.412496 0.070690
									CHANNELS 3 Xrotation Yrotation Zrotation
									JOINT RightArm
									{
										OFFSET -8.771282 -2.981682 -0.094208
										CHANNELS 3 Xrotation Yrotation Zrotation
										JOINT RightForeArm
										{
											OFFSET -8.494598 0.000000 0.000000
											CHANNELS 3 Xrotation Yrotation Zrotation
											JOINT RightHand
											{
												OFFSET -18.483803 0.000000 0.000001
												CHANNELS 3 Xrotation Yrotation Zrotation
												End Site
												{
													OFFSET 0 0 0
												}
											}
										}
									}
								}
							}
						}
					}
				}
			}
		}
	}
}
MOTION
Frames: 9
Frame Time: 0.03333333
-0.425890 29.356215 0.309259 0.000000 0.000000 0.000000 0.710206 -61.277022 4.249082 -30.281736 6.615760 28.560074 45.435002 -8.181227 -11.362618 -17.693352 -1.163683 -9.363136 -0.056257 1.193665 1.992418 0.000000 0.000000 0.000000 -0.722564 -60.087729 3.690812 -20.742062 -11.056265 -30.035036 40.553429 5.981126 -9.316530 -26.419202 -0.883725 25.435370 4.181194 -1.696736 -1.463381 0.000000 0.000000 0.000000 -0.514179 -59.057504 3.411857 11.964943 0.690626 -2.588470 8.962594 -0.831945 -5.476931 1.089081 -4.238961 1.287284 0.000000 0.000000 0.000000 9.975980 -0.541762 -5.488175 -18.552230 19.310171 13.138352 -3.614891 26.700678 -2.290836 0.000000 0.000000 0.000000 9.639965 -0.857168 -5.043687 -5.834762 -10.864354 -4.359742 -0.283461 -3.450900 -1.324526 -18.208497 8.183998 -31.443787 3.910457 -38.358663 2.733031 0.000000 0.000000 0.000000 9.227567 -0.890675 -5.501166 -6.020045 7.070593 3.242951 1.003375 0.102562 2.125286 -40.164985 -18.641750 34.357351 -161.400649 64.661606 161.895236 0.000000 0.000000 0.000000 
-0.469896 29.334154 0.471462 0.000000 0.000000 0.000000 0.561772 -61.550400 4.006356 -30.171811 6.998745 28.875400 45.680995 -8.436779 -11.349465 -17.968568 -1.186058 -9.283355 -0.107885 1.217151 1.987908 0.000000 0.000000 0.000000 -0.821257 -59.942054 3.470659 -20.453054 -11.011827 -29.743544 41.042118 5.732478 -9.234699 -26.503082 -0.988780 24.994744 3.965384 -1.663398 -1.424409 0.000000 0.000000 0.000000 -0.960659 -58.787472 2.900445 11.835024 0.600408 -2.636065 8.717217 -0.824734 -5.547578 0.911176 -3.253523 1.053252 0.000000 0.000000 0.000000 9.206771 -0.534298 -5.589993 -17.924416 19.108045 12.667289 -2.520865 26.073486 -1.823790 0.000000 0.000000 0.000000 9.373371 -0.870793 -5.223305 -5.722257 -10.733052 -4.667286 -0.613898 -2.628881 -1.663830 -18.338766 7.571285 -31.636364 4.143778 -38.696833 2.933423 0.000000 0.000000 0.000000 9.054812 -0.837562 -5.627971 -5.972127 7.112158 3.758568 1.216683 0.475818 2.847116 -38.725752 -18.689175 35.226544 -159.413514 65.923511 159.965189 0.000000 0.000000 0.000000 
-0.552126 29.385790 0.625683 0.000000 0.000000 0.000000 0.069125 -61.829475 3.222981 -30.034066 7.682748 29.439686 45.891314 -8.802987 -11.288850 -18.368155 -1.220154 -9.196131 -0.032312 1.289961 1.824906 0.000000 0.000000 0.000000 -1.222266 -59.895541 2.731944 -19.691546 -11.256760 -29.072277 41.057626 5.511297 -9.124433 -26.202214 -1.084403 24.671832 3.332393 -1.681882 -1.488566 0.000000 0.000000 0.000000 -1.447341 -58.473222 2.072774 11.474082 0.636862 -2.571645 8.065076 -0.660072 -5.690646 0.650390 -2.397816 0.731889 0.000000 0.000000 0.000000 7.953022 -0.345216 -5.798566 -16.715780 18.569036 12.286221 0.065483 23.624026 -0.286383 0.000000 0.000000 0.000000 8.705758 -0.749715 -5.475702 -5.702537 -10.494987 -5.022134 -1.367716 -1.828469 -1.833671 -18.508537 6.628075 -32.235436 3.360671 -39.251164 2.328076 0.000000 0.000000 0.000000 8.452757 -0.587224 -5.757245 -5.877803 6.931298 4.620425 1.453212 0.885567 2.478950 -36.992325 -17.866248 36.614390 -155.774868 68.349198 156.340025 0.000000 0.000000 0.000000 
-0.633660 29.517118 0.716267 0.000000 0.000000 0.000000 -0.617723 -61.973414 2.105183 -29.790485 8.505342 30.061636 45.715334 -9.170939 -11.204648 -18.582206 -1.268832 -9.222050 -0.082166 1.390249 1.593411 0.000000 0.000000 0.000000 -1.715263 -59.944131 1.734034 -18.502899 -11.782313 -28.091436 40.185490 5.355258 -9.011863 -25.590695 -1.128524 24.412553 2.541212 -1.729310 -1.593266 0.000000 0.000000 0.000000 -1.853298 -58.235573 1.147900 10.931736 0.805561 -2.419662 7.139694 -0.360203 -5.857493 0.440445 -1.513061 0.458266 0.000000 0.000000 0.000000 6.493991 0.019589 -6.021578 -15.387892 17.915175 11.964441 3.358401 20.123988 1.977985 0.000000 0.000000 0.000000 7.745936 -0.492638 -5.730284 -5.756601 -10.158000 -5.308021 -2.288957 -1.143709 -1.769173 -18.631481 5.546406 -33.100125 1.984202 -40.276697 1.187210 0.000000 0.000000 0.000000 7.506837 -0.201298 -5.854652 -5.696328 6.501276 5.532754 1.686666 0.995841 1.453244 -35.516632 -16.421076 38.351707 -150.264011 71.175967 150.785018 0.000000 0.000000 0.000000 
-0.683568 29.730528 0.767784 0.000000 0.000000 0.000000 -1.330393 -62.033882 0.913074 -29.393852 9.352682 30.583449 44.906530 -9.422107 -11.147725 -18.284997 -1.361077 -9.313689 -0.382862 1.479990 1.399802 0.000000 0.000000 0.000000 -2.156494 -60.027842 0.733796 -17.068066 -12.534870 -26.934738 38.353230 5.257516 -8.901906 -24.623150 -1.066344 24.165110 2.051421 -1.778760 -1.659988 0.000000 0.000000 0.000000 -1.990545 -58.172878 0.388621 10.314929 1.078569 -2.247247 6.103041 0.011831 -5.983583 0.400522 -1.008083 0.497906 0.000000 0.000000 0.000000 5.120434 0.464175 -6.183220 -14.679572 17.378841 11.517143 6.157863 16.567858 4.377230 0.000000 0.000000 0.000000 6.681077 -0.151723 -5.877433 -5.826742 -9.757226 -5.305520 -3.166529 -0.399796 -1.891305 -18.609965 4.623816 -34.101994 0.633246 -41.565973 0.011601 0.000000 0.000000 0.000000 6.389756 0.240326 -5.866807 -5.465320 5.924864 6.170571 1.859856 1.059378 0.587815 -34.434686 -14.679181 40.320294 -142.721789 73.877867 143.129756 0.000000 0.000000 0.000000 
-0.686800 30.011795 0.759756 0.000000 0.000000 0.000000 -1.774702 -62.074713 -0.000214 -28.897864 10.091210 30.921595 43.466221 -9.503011 -11.138036 -17.347857 -1.515407 -9.381365 -0.684810 1.534161 1.253505 0.000000 0.000000 0.000000 -2.400416 -60.203268 -0.049948 -15.736674 -13.397088 -25.764232 35.804029 5.198334 -8.756614 -23.259198 -0.905411 23.967395 2.048891 -1.833325 -1.625274 0.000000 0.000000 0.000000 -1.884472 -58.414476 -0.108166 9.768619 1.383130 -2.119808 5.117914 0.382824 -6.023299 0.284834 -0.991004 0.938752 0.000000 0.000000 0.000000 4.106059 0.901394 -6.208597 -15.160761 17.208373 10.820181 7.519596 13.997540 6.020645 0.000000 0.000000 0.000000 5.742717 0.194931 -5.863047 -5.861861 -9.286813 -4.838709 -3.727849 0.367838 -2.120796 -18.413147 3.774824 -35.261828 -0.079124 -42.903878 -0.709972 0.000000 0.000000 0.000000 5.326374 0.635133 -5.790796 -5.211299 5.336116 6.317509 2.048478 1.188184 0.134232 -33.804249 -13.070272 42.317701 -133.419522 76.065945 133.663114 0.000000 0.000000 0.000000 
-0.640440 30.302765 0.687918 0.000000 0.000000 0.000000 -1.971951 -62.188435 -0.592453 -28.400943 10.755263 31.203436 41.691526 -9.501947 -11.200037 -15.970563 -1.742993 -9.366573 -0.815356 1.548052 1.164999 0.000000 0.000000 0.000000 -2.512768 -60.505695 -0.564075 -14.818229 -14.183870 -24.746486 33.183351 5.226914 -8.610990 -21.678319 -0.640434 23.845751 2.279114 -1.877722 -1.551899 0.000000 0.000000 0.000000 -1.707612 -58.802970 -0.407975 9.408980 1.673176 -2.088578 4.374124 0.696554 -5.965295 0.203039 -1.271215 1.314935 0.000000 0.000000 0.000000 3.593150 1.228793 -6.080772 -17.028379 17.556523 9.855291 7.135404 12.929663 6.277513 0.000000 0.000000 0.000000 5.085034 0.494916 -5.690643 -5.852955 -8.782227 -3.993711 -4.058211 1.001819 -2.606927 -18.084251 2.788164 -36.420901 0.258247 -44.071567 -0.612379 0.000000 0.000000 0.000000 4.491240 0.924827 -5.652359 -4.958136 4.973747 5.907718 2.234009 1.231480 0.349035 -33.463016 -11.944171 44.058214 -122.743376 77.645140 122.787554 0.000000 0.000000 0.000000 
-0.542908 30.534744 0.590313 0.000000 0.000000 0.000000 -2.059728 -62.393286 -0.974200 -28.083259 11.343541 31.542111 40.007375 -9.490024 -11.321881 -14.675112 -1.999346 -9.185868 -0.672965 1.533469 1.129803 0.000000 0.000000 0.000000 -2.647218 -60.910029 -0.944953 -14.452260 -14.749583 -23.948190 31.251903 5.292697 -8.508083 -20.209698 -0.358319 23.791311 2.461677 -1.914140 -1.515907 0.000000 0.000000 0.000000 -1.624845 -59.287381 -0.674950 9.309530 1.896828 -2.145687 3.990798 0.883569 -5.824390 0.384939 -1.758516 1.503755 0.000000 0.000000 0.000000 3.586657 1.358454 -5.841428 -20.042278 18.396327 8.782121 5.137926 13.460216 5.116718 0.000000 0.000000 0.000000 4.850530 0.671819 -5.403565 -5.784670 -8.305731 -2.834397 -4.283370 1.470031 -3.293110 -17.896298 1.701979 -37.358823 1.465101 -44.573893 0.274525 0.000000 0.000000 0.000000 4.118669 1.066343 -5.476632 -4.743509 5.038318 4.991811 2.325332 1.354866 1.001324 -33.290001 -11.613427 45.083610 -113.177648 78.574503 113.000309 0.000000 0.000000 0.000000 
-0.403856 30.642675 0.445333 0.000000 0.000000 0.000000 -2.161497 -62.620527 -1.272590 -28.121509 11.750999 31.997237 38.954410 -9.588653 -11.458767 -13.911214 -2.239230 -8.960684 -0.346703 1.505064 1.150032 0.000000 0.000000 0.000000 -2.939971 -61.195537 -1.375882 -14.583518 -14.972980 -23.347289 30.615333 5.341675 -8.514916 -19.316617 -0.186613 23.659026 2.526994 -1.948004 -1.542385 0.000000 0.000000 0.000000 -1.929554 -59.808449 -1.147979 9.463813 2.020192 -2.237910 4.002997 0.918167 -5.651205 0.687164 -2.255652 1.483628 0.000000 0.000000 0.000000 4.017779 1.300088 -5.542988 -23.525562 19.577428 7.973658 2.190697 15.335411 2.968523 0.000000 0.000000 0.000000 5.067874 0.715887 -5.091566 -5.676624 -7.929669 -1.573327 -4.272960 1.540229 -3.792455 -18.121527 0.543141 -37.940967 3.009798 -44.377590 1.516370 0.000000 0.000000 0.000000 4.254077 1.043436 -5.321228 -4.552254 5.537910 3.758679 2.387928 1.531184 1.701281 -33.340107 -12.321292 45.027114 -109.559957 78.904258 109.166948 0.000000 0.000000 0.000000 
